<svg width="19" height="20" viewBox="0 0 19 20" fill="none" xmlns="http://www.w3.org/2000/svg">
<path id="add" d="M9.5 0.679199C7.62108 0.679199 5.78435 1.23636 4.22209 2.28024C2.65982 3.32411 1.44218 4.80781 0.723149 6.54371C0.00411618 8.2796 -0.184015 10.1897 0.182544 12.0326C0.549104 13.8754 1.45389 15.5681 2.78249 16.8967C4.11109 18.2253 5.80383 19.1301 7.64665 19.4967C9.48947 19.8632 11.3996 19.6751 13.1355 18.9561C14.8714 18.237 16.3551 17.0194 17.399 15.4571C18.4428 13.8948 19 12.0581 19 10.1792C19 7.65964 17.9991 5.24328 16.2175 3.46168C14.4359 1.68009 12.0196 0.679199 9.5 0.679199V0.679199ZM9.5 18.0962C7.93417 18.0962 6.4035 17.6319 5.10155 16.7619C3.79961 15.892 2.78487 14.6555 2.18565 13.2089C1.58643 11.7623 1.42965 10.1704 1.73513 8.63467C2.04061 7.09892 2.79463 5.68825 3.90184 4.58103C5.00905 3.47382 6.41973 2.7198 7.95547 2.41432C9.49122 2.10884 11.0831 2.26563 12.5297 2.86485C13.9764 3.46406 15.2128 4.47881 16.0827 5.78075C16.9527 7.08269 17.417 8.61336 17.417 10.1792C17.417 11.2189 17.2122 12.2484 16.8144 13.2089C16.4165 14.1694 15.8333 15.0422 15.0982 15.7774C14.363 16.5125 13.4902 17.0957 12.5297 17.4936C11.5692 17.8914 10.5397 18.0962 9.5 18.0962ZM13.458 10.1792C13.458 10.3893 13.3746 10.5907 13.226 10.7392C13.0775 10.8878 12.8761 10.9712 12.666 10.9712H10.292V13.3462C10.2958 13.4525 10.2781 13.5585 10.24 13.6578C10.202 13.7571 10.1443 13.8478 10.0704 13.9243C9.99652 14.0009 9.90799 14.0617 9.81008 14.1033C9.71216 14.1449 9.60688 14.1663 9.5005 14.1663C9.39413 14.1663 9.28884 14.1449 9.19093 14.1033C9.09302 14.0617 9.00448 14.0009 8.93061 13.9243C8.85674 13.8478 8.79905 13.7571 8.76097 13.6578C8.7229 13.5585 8.70522 13.4525 8.709 13.3462V10.9712H6.333C6.2267 10.975 6.12072 10.9573 6.02139 10.9192C5.92206 10.8812 5.83142 10.8235 5.75488 10.7496C5.67833 10.6757 5.61746 10.5872 5.57588 10.4893C5.5343 10.3914 5.51287 10.2861 5.51287 10.1797C5.51287 10.0733 5.5343 9.96804 5.57588 9.87013C5.61746 9.77221 5.67833 9.68368 5.75488 9.60981C5.83142 9.53594 5.92206 9.47824 6.02139 9.44017C6.12072 9.40209 6.2267 9.38442 6.333 9.3882H8.708V7.0122C8.70422 6.90589 8.7219 6.79991 8.75997 6.70058C8.79805 6.60125 8.85574 6.51061 8.92961 6.43407C9.00348 6.35753 9.09202 6.29665 9.18993 6.25507C9.28784 6.21349 9.39313 6.19206 9.4995 6.19206C9.60588 6.19206 9.71116 6.21349 9.80908 6.25507C9.90699 6.29665 9.99552 6.35753 10.0694 6.43407C10.1433 6.51061 10.201 6.60125 10.239 6.70058C10.2771 6.79991 10.2948 6.90589 10.291 7.0122V9.3872H12.666C12.8761 9.3872 13.0775 9.47064 13.226 9.61917C13.3746 9.7677 13.458 9.96915 13.458 10.1792Z" fill="#1D1F1E"/>
</svg>
