<svg width="46" height="46" viewBox="0 0 46 46" fill="none" xmlns="http://www.w3.org/2000/svg">
<path d="M29.7365 18.0503L18.4228 29.364C18.0363 29.7505 17.3952 29.7505 17.0086 29.364C16.6221 28.9774 16.6221 28.3363 17.0086 27.9498L28.3223 16.636C28.7089 16.2495 29.35 16.2495 29.7365 16.636C30.1231 17.0226 30.1231 17.6637 29.7365 18.0503Z" fill="white"/>
<path d="M29.7365 29.364C29.35 29.7505 28.7089 29.7505 28.3223 29.364L17.0086 18.0502C16.6221 17.6637 16.6221 17.0226 17.0086 16.636C17.3952 16.2495 18.0363 16.2495 18.4228 16.636L29.7365 27.9497C30.1231 28.3363 30.1231 28.9774 29.7365 29.364Z" fill="white"/>
</svg>
