<svg width="24" height="25" viewBox="0 0 24 25" fill="none" xmlns="http://www.w3.org/2000/svg">
<path d="M16.19 2.07788H7.81C4.17 2.07788 2 4.24788 2 7.88788V16.2579C2 19.9079 4.17 22.0779 7.81 22.0779H16.18C19.82 22.0779 21.99 19.9079 21.99 16.2679V7.88788C22 4.24788 19.83 2.07788 16.19 2.07788ZM16.06 11.2479L12.53 14.7779C12.38 14.9279 12.19 14.9979 12 14.9979C11.81 14.9979 11.62 14.9279 11.47 14.7779L7.94 11.2479C7.65 10.9579 7.65 10.4779 7.94 10.1879C8.23 9.89788 8.71 9.89788 9 10.1879L12 13.1879L15 10.1879C15.29 9.89788 15.77 9.89788 16.06 10.1879C16.35 10.4779 16.35 10.9479 16.06 11.2479Z" fill="#E0F3ED"/>
</svg>
