<svg width="24" height="25" viewBox="0 0 24 25" fill="none" xmlns="http://www.w3.org/2000/svg">
<path d="M19.96 9.48969C19.29 8.74969 18.28 8.31969 16.88 8.16969V7.40969C16.88 6.03969 16.3 4.71969 15.28 3.79969C14.25 2.85969 12.91 2.41969 11.52 2.54969C9.12999 2.77969 7.11999 5.08969 7.11999 7.58969V8.16969C5.71999 8.31969 4.70999 8.74969 4.03999 9.48969C3.06999 10.5697 3.09999 12.0097 3.20999 13.0097L3.90999 18.5797C4.11999 20.5297 4.90999 22.5297 9.20999 22.5297H14.79C19.09 22.5297 19.88 20.5297 20.09 18.5897L20.79 12.9997C20.9 12.0097 20.92 10.5697 19.96 9.48969ZM11.66 3.93969C12.66 3.84969 13.61 4.15969 14.35 4.82969C15.08 5.48969 15.49 6.42969 15.49 7.40969V8.10969H8.50999V7.58969C8.50999 5.80969 9.97999 4.09969 11.66 3.93969ZM8.41999 13.6797H8.40999C7.85999 13.6797 7.40999 13.2297 7.40999 12.6797C7.40999 12.1297 7.85999 11.6797 8.40999 11.6797C8.96999 11.6797 9.41999 12.1297 9.41999 12.6797C9.41999 13.2297 8.96999 13.6797 8.41999 13.6797ZM15.42 13.6797H15.41C14.86 13.6797 14.41 13.2297 14.41 12.6797C14.41 12.1297 14.86 11.6797 15.41 11.6797C15.97 11.6797 16.42 12.1297 16.42 12.6797C16.42 13.2297 15.97 13.6797 15.42 13.6797Z" fill="#62C4A4"/>
</svg>
