<svg width="19" height="20" viewBox="0 0 19 20" fill="none" xmlns="http://www.w3.org/2000/svg">
<path d="M15.042 2.26226H14.25V1.47126C14.2538 1.36495 14.2361 1.25897 14.198 1.15964C14.16 1.06032 14.1023 0.969676 14.0284 0.893133C13.9545 0.816589 13.866 0.755711 13.7681 0.714132C13.6702 0.672552 13.5649 0.651123 13.4585 0.651123C13.3521 0.651123 13.2468 0.672552 13.1489 0.714132C13.051 0.755711 12.9625 0.816589 12.8886 0.893133C12.8147 0.969676 12.757 1.06032 12.719 1.15964C12.6809 1.25897 12.6632 1.36495 12.667 1.47126V2.26326H6.333V1.47126C6.32571 1.26621 6.23913 1.07199 6.09149 0.929509C5.94385 0.787026 5.74668 0.707399 5.5415 0.707399C5.33632 0.707399 5.13915 0.787026 4.99151 0.929509C4.84387 1.07199 4.75729 1.26621 4.75 1.47126V2.26326H3.958C2.90868 2.26458 1.90271 2.68201 1.16073 3.42399C0.41875 4.16598 0.00132306 5.17194 0 6.22126L0 15.7213C0.00132306 16.7706 0.41875 17.7765 1.16073 18.5185C1.90271 19.2605 2.90868 19.6779 3.958 19.6793H15.042C16.0913 19.6779 17.0973 19.2605 17.8393 18.5185C18.5812 17.7765 18.9987 16.7706 19 15.7213V6.22126C18.9989 5.17177 18.5816 4.16555 17.8396 3.42335C17.0976 2.68115 16.0915 2.26358 15.042 2.26226ZM1.583 6.22126C1.583 5.59137 1.83322 4.98728 2.27862 4.54188C2.72402 4.09648 3.32811 3.84626 3.958 3.84626H15.042C15.6719 3.84626 16.276 4.09648 16.7214 4.54188C17.1668 4.98728 17.417 5.59137 17.417 6.22126V7.01326H1.583V6.22126ZM15.042 18.0963H3.958C3.32811 18.0963 2.72402 17.846 2.27862 17.4006C1.83322 16.9552 1.583 16.3512 1.583 15.7213V8.59626H17.417V15.7213C17.417 16.3512 17.1668 16.9552 16.7214 17.4006C16.276 17.846 15.6719 18.0963 15.042 18.0963Z" fill="#999999"/>
<path d="M9.50099 13.7432C10.1571 13.7432 10.689 13.2113 10.689 12.5552C10.689 11.8991 10.1571 11.3672 9.50099 11.3672C8.84487 11.3672 8.31299 11.8991 8.31299 12.5552C8.31299 13.2113 8.84487 13.7432 9.50099 13.7432Z" fill="#999999"/>
<path d="M5.542 13.7432C6.19812 13.7432 6.73 13.2113 6.73 12.5552C6.73 11.8991 6.19812 11.3672 5.542 11.3672C4.88589 11.3672 4.354 11.8991 4.354 12.5552C4.354 13.2113 4.88589 13.7432 5.542 13.7432Z" fill="#999999"/>
<path d="M13.459 13.7432C14.1151 13.7432 14.647 13.2113 14.647 12.5552C14.647 11.8991 14.1151 11.3672 13.459 11.3672C12.8029 11.3672 12.271 11.8991 12.271 12.5552C12.271 13.2113 12.8029 13.7432 13.459 13.7432Z" fill="#999999"/>
</svg>
