<svg width="20" height="20" viewBox="0 0 20 20" fill="none" xmlns="http://www.w3.org/2000/svg">
<path d="M19.0022 2.21609V5.38809C19.0022 5.59841 18.9186 5.80011 18.7699 5.94883C18.6212 6.09755 18.4195 6.18109 18.2092 6.18109C17.9989 6.18109 17.7972 6.09755 17.6484 5.94883C17.4997 5.80011 17.4162 5.59841 17.4162 5.38809V3.35509L13.2162 7.53609C13.1421 7.6097 13.0541 7.66798 12.9575 7.70762C12.8608 7.74725 12.7573 7.76746 12.6529 7.76709C12.5484 7.76672 12.445 7.74577 12.3486 7.70545C12.2523 7.66513 12.1648 7.60623 12.0912 7.53209C12.0176 7.45796 11.9593 7.37006 11.9197 7.2734C11.88 7.17675 11.8598 7.07323 11.8602 6.96877C11.8606 6.8643 11.8815 6.76093 11.9218 6.66456C11.9621 6.56819 12.0211 6.4807 12.0952 6.40709L16.3142 2.20709H14.2442C14.0339 2.20709 13.8322 2.12355 13.6834 1.97483C13.5347 1.82611 13.4512 1.62441 13.4512 1.41409C13.4512 1.20378 13.5347 1.00207 13.6834 0.853358C13.8322 0.704642 14.0339 0.621094 14.2442 0.621094H17.4162C17.6252 0.62109 17.8322 0.66241 18.0252 0.742676C18.2182 0.822942 18.3935 0.940572 18.5408 1.0888C18.6882 1.23703 18.8049 1.41293 18.884 1.60639C18.9632 1.79986 19.0034 2.00706 19.0022 2.21609ZM18.2822 13.9071C18.7419 14.3679 19 14.9922 19 15.6431C19 16.294 18.7419 16.9183 18.2822 17.3791L17.5592 18.2121C11.0662 24.4241 -4.73782 8.62509 1.38218 2.10709L2.29518 1.31709C2.75672 0.870307 3.37549 0.623011 4.01783 0.628624C4.66017 0.634237 5.27453 0.892309 5.72818 1.34709C5.75218 1.37209 7.22118 3.28209 7.22118 3.28209C7.65783 3.73937 7.90147 4.34733 7.90147 4.97959C7.90147 5.61186 7.65783 6.21982 7.22118 6.67709L6.29718 7.83209C6.80583 9.06716 7.55359 10.1895 8.49748 11.1346C9.44137 12.0797 10.5628 12.8289 11.7972 13.3391L12.9592 12.4151C13.4164 11.9787 14.0242 11.7353 14.6562 11.7353C15.2882 11.7353 15.896 11.9787 16.3532 12.4151C16.3532 12.4151 18.2632 13.8841 18.2882 13.9081L18.2822 13.9071ZM17.1922 15.0601C17.1922 15.0601 15.2922 13.5991 15.2702 13.5761C15.1069 13.4141 14.8862 13.3233 14.6562 13.3233C14.4262 13.3233 14.2055 13.4141 14.0422 13.5761C14.0212 13.5971 12.4212 14.8761 12.4212 14.8761C12.3135 14.9619 12.1853 15.0182 12.0492 15.0394C11.9131 15.0606 11.7739 15.046 11.6452 14.9971C10.0456 14.4024 8.59255 13.4705 7.38476 12.2648C6.17697 11.0591 5.24265 9.6077 4.64518 8.00909C4.59103 7.87707 4.57349 7.73289 4.59444 7.59174C4.61538 7.45058 4.67403 7.3177 4.76418 7.20709C4.76418 7.20709 6.03818 5.60709 6.06418 5.58609C6.22613 5.42278 6.317 5.20209 6.317 4.97209C6.317 4.74209 6.22613 4.52141 6.06418 4.35809C6.04018 4.33409 4.58018 2.43609 4.58018 2.43609C4.41437 2.28647 4.19747 2.20617 3.9742 2.21175C3.75093 2.21733 3.53831 2.30837 3.38018 2.46609L2.46918 3.25909C-2.00682 8.63709 11.6912 21.5761 16.4032 17.1221L17.1262 16.2891C17.295 16.1326 17.3964 15.9167 17.4091 15.6868C17.4218 15.457 17.3447 15.2312 17.1942 15.0571L17.1922 15.0601Z" fill="#999999"/>
</svg>
