<svg width="24" height="25" viewBox="0 0 24 25" fill="none" xmlns="http://www.w3.org/2000/svg">
<path d="M11.05 15.0279L9.2 16.8779C8.81 17.2679 8.19 17.2679 7.79 16.8879C7.68 16.7779 7.57 16.6779 7.46 16.5679C6.43 15.5279 5.5 14.4379 4.67 13.2979C3.85 12.1579 3.19 11.0179 2.71 9.88788C2.24 8.74788 2 7.65788 2 6.61788C2 5.93788 2.12 5.28788 2.36 4.68788C2.6 4.07788 2.98 3.51788 3.51 3.01788C4.15 2.38788 4.85 2.07788 5.59 2.07788C5.87 2.07788 6.15 2.13788 6.4 2.25788C6.66 2.37788 6.89 2.55788 7.07 2.81788L9.39 6.08788C9.57 6.33788 9.7 6.56788 9.79 6.78788C9.88 6.99788 9.93 7.20788 9.93 7.39788C9.93 7.63788 9.86 7.87788 9.72 8.10788C9.59 8.33788 9.4 8.57788 9.16 8.81788L8.4 9.60788C8.29 9.71788 8.24 9.84788 8.24 10.0079C8.24 10.0879 8.25 10.1579 8.27 10.2379C8.3 10.3179 8.33 10.3779 8.35 10.4379C8.53 10.7679 8.84 11.1979 9.28 11.7179C9.73 12.2379 10.21 12.7679 10.73 13.2979C10.83 13.3979 10.94 13.4979 11.04 13.5979C11.44 13.9879 11.45 14.6279 11.05 15.0279Z" fill="#E0F3ED"/>
<path d="M21.9701 18.4079C21.9701 18.6879 21.9201 18.9779 21.8201 19.2579C21.7901 19.3379 21.7601 19.4179 21.7201 19.4979C21.5501 19.8579 21.3301 20.1979 21.0401 20.5179C20.5501 21.0579 20.0101 21.4479 19.4001 21.6979C19.3901 21.6979 19.3801 21.7079 19.3701 21.7079C18.7801 21.9479 18.1401 22.0779 17.4501 22.0779C16.4301 22.0779 15.3401 21.8379 14.1901 21.3479C13.0401 20.8579 11.8901 20.1979 10.7501 19.3679C10.3601 19.0779 9.9701 18.7879 9.6001 18.4779L12.8701 15.2079C13.1501 15.4179 13.4001 15.5779 13.6101 15.6879C13.6601 15.7079 13.7201 15.7379 13.7901 15.7679C13.8701 15.7979 13.9501 15.8079 14.0401 15.8079C14.2101 15.8079 14.3401 15.7479 14.4501 15.6379L15.2101 14.8879C15.4601 14.6379 15.7001 14.4479 15.9301 14.3279C16.1601 14.1879 16.3901 14.1179 16.6401 14.1179C16.8301 14.1179 17.0301 14.1579 17.2501 14.2479C17.4701 14.3379 17.7001 14.4679 17.9501 14.6379L21.2601 16.9879C21.5201 17.1679 21.7001 17.3779 21.8101 17.6279C21.9101 17.8779 21.9701 18.1279 21.9701 18.4079Z" fill="#E0F3ED"/>
</svg>
