<svg width="19" height="20" viewBox="0 0 19 20" fill="none" xmlns="http://www.w3.org/2000/svg">
<path d="M9.5 0.631592C7.62108 0.631592 5.78435 1.18876 4.22209 2.23263C2.65982 3.2765 1.44218 4.7602 0.723149 6.4961C0.00411618 8.232 -0.184015 10.1421 0.182544 11.985C0.549104 13.8278 1.45389 15.5205 2.78249 16.8491C4.11109 18.1777 5.80383 19.0825 7.64665 19.4491C9.48947 19.8156 11.3996 19.6275 13.1355 18.9084C14.8714 18.1894 16.3551 16.9718 17.399 15.4095C18.4428 13.8472 19 12.0105 19 10.1316C19 7.61203 17.9991 5.19567 16.2175 3.41408C14.4359 1.63248 12.0196 0.631592 9.5 0.631592V0.631592ZM9.5 18.0486C7.93417 18.0486 6.4035 17.5843 5.10155 16.7143C3.79961 15.8444 2.78487 14.6079 2.18565 13.1613C1.58643 11.7147 1.42965 10.1228 1.73513 8.58706C2.04061 7.05131 2.79463 5.64064 3.90184 4.53343C5.00905 3.42622 6.41973 2.67219 7.95547 2.36671C9.49122 2.06124 11.0831 2.21802 12.5297 2.81724C13.9764 3.41646 15.2128 4.4312 16.0827 5.73314C16.9527 7.03509 17.417 8.56576 17.417 10.1316C17.417 11.1713 17.2122 12.2008 16.8144 13.1613C16.4165 14.1218 15.8333 14.9946 15.0982 15.7298C14.363 16.4649 13.4902 17.0481 12.5297 17.4459C11.5692 17.8438 10.5397 18.0486 9.5 18.0486Z" fill="#999999"/>
<path d="M9.50006 5.38159C9.29001 5.38159 9.08856 5.46503 8.94003 5.61356C8.7915 5.76209 8.70806 5.96354 8.70806 6.17359V9.59759L6.04006 11.2696C5.95168 11.3248 5.87504 11.3969 5.81452 11.4817C5.754 11.5666 5.71079 11.6625 5.68734 11.764C5.66389 11.8656 5.66067 11.9708 5.67787 12.0735C5.69507 12.1763 5.73234 12.2747 5.78756 12.3631C5.84278 12.4515 5.91487 12.5281 5.99971 12.5886C6.08455 12.6491 6.18047 12.6924 6.28201 12.7158C6.38356 12.7393 6.48872 12.7425 6.5915 12.7253C6.69429 12.7081 6.79268 12.6708 6.88106 12.6156L9.92106 10.7156C10.0358 10.6436 10.1302 10.5434 10.1951 10.4245C10.2601 10.3056 10.2935 10.1721 10.2921 10.0366V6.17359C10.2921 5.96354 10.2086 5.76209 10.0601 5.61356C9.91156 5.46503 9.71011 5.38159 9.50006 5.38159Z" fill="#999999"/>
</svg>
