<svg width="320" height="320" viewBox="0 0 320 320" fill="none" xmlns="http://www.w3.org/2000/svg">
<rect x="0.602539" width="319.095" height="319.09" rx="12" fill="url(#paint0_linear_1632_6445)"/>
<path d="M192.864 130.025H172.328C173.906 128.663 175.114 126.931 175.841 124.987C176.568 123.043 176.791 120.949 176.49 118.897C176.189 116.846 175.372 114.902 174.116 113.244C172.859 111.586 171.203 110.267 169.298 109.408C167.394 108.549 165.303 108.178 163.216 108.328C161.129 108.478 159.113 109.145 157.354 110.267C155.595 111.389 154.148 112.931 153.146 114.752C152.144 116.572 151.62 118.612 151.62 120.686V130.025H149.408V120.686C149.41 118.611 148.886 116.569 147.884 114.747C146.883 112.926 145.436 111.382 143.676 110.259C141.916 109.135 139.899 108.468 137.811 108.317C135.723 108.167 133.63 108.538 131.725 109.397C129.819 110.257 128.162 111.577 126.905 113.236C125.648 114.895 124.832 116.84 124.531 118.893C124.23 120.946 124.454 123.041 125.182 124.986C125.911 126.931 127.121 128.663 128.7 130.025H108.165C106.622 130.026 105.143 130.635 104.052 131.716C102.961 132.797 102.348 134.262 102.346 135.791V143.996C102.348 145.524 102.961 146.99 104.052 148.071C105.143 149.152 106.622 149.76 108.165 149.762H109.521V196.149C109.523 197.678 110.136 199.144 111.227 200.225C112.318 201.306 113.797 201.914 115.34 201.916H185.689C187.232 201.914 188.711 201.306 189.802 200.225C190.893 199.144 191.506 197.678 191.508 196.149V149.762H192.864C194.407 149.76 195.886 149.152 196.977 148.071C198.068 146.99 198.682 145.524 198.683 143.996V135.791C198.682 134.262 198.068 132.797 196.977 131.716C195.886 130.635 194.407 130.026 192.864 130.025ZM154.7 120.686C154.7 118.838 155.253 117.033 156.288 115.497C157.324 113.961 158.796 112.764 160.518 112.057C162.24 111.351 164.135 111.166 165.963 111.526C167.791 111.886 169.471 112.776 170.789 114.082C172.107 115.388 173.004 117.052 173.368 118.864C173.732 120.675 173.545 122.553 172.832 124.259C172.118 125.966 170.911 127.425 169.361 128.451C167.811 129.477 165.989 130.025 164.125 130.025H154.7V120.686ZM150.517 133.077C152.341 133.079 154.089 133.799 155.378 135.076C156.667 136.354 157.392 138.086 157.394 139.893V146.71H143.635V139.893C143.637 138.086 144.363 136.353 145.652 135.075C146.942 133.797 148.691 133.078 150.515 133.077H150.517ZM147.512 149.762C147.221 150.582 146.703 151.305 146.018 151.847C145.332 152.389 144.506 152.73 143.635 152.829V149.762H147.512ZM127.48 120.686C127.48 118.209 128.473 115.833 130.24 114.082C132.008 112.33 134.405 111.346 136.904 111.346C139.404 111.346 141.801 112.33 143.569 114.082C145.336 115.833 146.329 118.209 146.329 120.686V130.025H136.904C134.406 130.022 132.01 129.037 130.243 127.286C128.476 125.536 127.483 123.162 127.48 120.686ZM108.165 146.71C107.438 146.709 106.742 146.423 106.229 145.914C105.715 145.405 105.426 144.715 105.425 143.996V135.791C105.426 135.071 105.715 134.381 106.229 133.873C106.742 133.364 107.438 133.077 108.165 133.077H143.324C141.547 134.909 140.555 137.352 140.556 139.893V146.71H108.165ZM140.556 149.762V152.102C139.698 151.544 139.049 150.721 138.709 149.762H140.556ZM185.689 198.865H115.34C114.614 198.864 113.918 198.577 113.404 198.069C112.891 197.56 112.602 196.87 112.601 196.15V149.762H135.52C135.789 151.065 136.395 152.277 137.277 153.279C138.16 154.281 139.29 155.039 140.556 155.48V173.892C140.556 174.296 140.718 174.684 141.007 174.971C141.296 175.257 141.688 175.417 142.096 175.417C142.504 175.417 142.896 175.257 143.185 174.971C143.474 174.684 143.636 174.296 143.636 173.892V155.89C145.327 155.774 146.934 155.111 148.21 154.005C149.486 152.898 150.36 151.407 150.7 149.761H157.394V159.757C157.394 160.162 157.556 160.55 157.845 160.836C158.134 161.122 158.526 161.283 158.934 161.283C159.342 161.283 159.734 161.122 160.023 160.836C160.312 160.55 160.474 160.162 160.474 159.757V149.761H174.693C172.968 150.361 171.513 151.547 170.585 153.108C169.657 154.67 169.317 156.506 169.624 158.292C169.932 160.078 170.867 161.698 172.264 162.867C173.661 164.035 175.431 164.676 177.259 164.676C179.087 164.676 180.857 164.035 182.254 162.867C183.651 161.698 184.586 160.078 184.893 158.292C185.201 156.506 184.86 154.67 183.933 153.108C183.005 151.547 181.55 150.361 179.825 149.761H188.428V196.149C188.428 196.869 188.139 197.559 187.625 198.068C187.112 198.577 186.415 198.864 185.689 198.865ZM177.259 152.378C178.182 152.378 179.084 152.648 179.851 153.156C180.619 153.663 181.217 154.385 181.57 155.23C181.924 156.074 182.017 157.004 181.837 157.901C181.657 158.797 181.213 159.621 180.561 160.268C179.909 160.915 179.078 161.356 178.173 161.534C177.268 161.713 176.33 161.622 175.478 161.272C174.625 160.922 173.896 160.33 173.383 159.57C172.871 158.81 172.597 157.916 172.597 157.002C172.598 155.776 173.089 154.602 173.963 153.735C174.837 152.868 176.023 152.38 177.259 152.378ZM195.604 143.995C195.603 144.714 195.314 145.404 194.8 145.913C194.287 146.422 193.591 146.708 192.864 146.709H160.476V139.893C160.477 137.352 159.484 134.909 157.707 133.077H192.867C193.593 133.077 194.289 133.364 194.803 133.873C195.316 134.381 195.605 135.071 195.606 135.791V143.996L195.604 143.995Z" fill="#00FFAC"/>
<path d="M130.697 179.915C129.165 179.915 127.668 180.365 126.394 181.208C125.121 182.052 124.128 183.25 123.542 184.653C122.956 186.055 122.802 187.598 123.101 189.087C123.4 190.575 124.137 191.943 125.221 193.016C126.304 194.089 127.684 194.82 129.186 195.116C130.688 195.413 132.245 195.261 133.661 194.68C135.076 194.099 136.285 193.115 137.136 191.853C137.987 190.591 138.441 189.107 138.441 187.589C138.439 185.555 137.623 183.604 136.171 182.165C134.719 180.727 132.75 179.917 130.697 179.915ZM130.697 192.212C129.774 192.212 128.872 191.941 128.105 191.433C127.338 190.925 126.74 190.203 126.387 189.358C126.034 188.514 125.942 187.584 126.122 186.688C126.302 185.791 126.746 184.967 127.398 184.321C128.051 183.674 128.882 183.234 129.787 183.056C130.692 182.877 131.63 182.969 132.482 183.319C133.334 183.669 134.063 184.261 134.576 185.021C135.088 185.781 135.362 186.675 135.362 187.589C135.361 188.816 134.869 189.991 133.995 190.859C133.12 191.726 131.934 192.214 130.697 192.215V192.212Z" fill="#00FFAC"/>
<path d="M131.086 161.191C131.086 159.673 130.632 158.189 129.781 156.927C128.93 155.665 127.72 154.681 126.305 154.1C124.89 153.519 123.333 153.367 121.83 153.664C120.328 153.96 118.948 154.691 117.865 155.764C116.782 156.837 116.044 158.205 115.745 159.693C115.447 161.182 115.6 162.725 116.186 164.127C116.772 165.53 117.765 166.728 119.039 167.572C120.312 168.415 121.81 168.865 123.341 168.865C125.395 168.863 127.363 168.054 128.815 166.615C130.267 165.176 131.084 163.225 131.086 161.191ZM118.676 161.191C118.676 160.276 118.95 159.383 119.463 158.622C119.975 157.862 120.704 157.27 121.556 156.92C122.409 156.57 123.347 156.478 124.251 156.657C125.156 156.835 125.988 157.275 126.64 157.922C127.292 158.568 127.737 159.392 127.917 160.289C128.097 161.185 128.004 162.115 127.651 162.96C127.298 163.804 126.7 164.526 125.933 165.034C125.166 165.542 124.264 165.813 123.341 165.813C122.105 165.812 120.919 165.324 120.045 164.457C119.17 163.591 118.678 162.416 118.676 161.191Z" fill="#00FFAC"/>
<path d="M154.074 166.22C152.542 166.22 151.045 166.67 149.771 167.514C148.497 168.357 147.505 169.555 146.919 170.958C146.332 172.36 146.179 173.903 146.478 175.392C146.777 176.881 147.514 178.248 148.597 179.321C149.681 180.395 151.061 181.126 152.563 181.422C154.065 181.718 155.622 181.566 157.038 180.985C158.453 180.404 159.662 179.42 160.513 178.158C161.364 176.896 161.818 175.413 161.818 173.895C161.816 171.86 161 169.909 159.548 168.47C158.096 167.032 156.127 166.222 154.074 166.22ZM154.074 178.517C153.151 178.517 152.249 178.246 151.482 177.738C150.715 177.23 150.117 176.508 149.764 175.664C149.411 174.819 149.319 173.89 149.499 172.993C149.679 172.096 150.123 171.272 150.775 170.626C151.428 169.979 152.259 169.539 153.164 169.361C154.069 169.183 155.007 169.274 155.859 169.624C156.711 169.974 157.44 170.566 157.952 171.326C158.465 172.087 158.739 172.98 158.739 173.895C158.737 175.12 158.244 176.294 157.37 177.161C156.496 178.027 155.31 178.514 154.074 178.516V178.517Z" fill="#00FFAC"/>
<path d="M177.259 177.738C175.728 177.738 174.23 178.188 172.957 179.031C171.683 179.874 170.69 181.073 170.104 182.475C169.518 183.878 169.365 185.421 169.663 186.909C169.962 188.398 170.7 189.766 171.783 190.839C172.866 191.912 174.246 192.643 175.748 192.939C177.251 193.235 178.808 193.083 180.223 192.503C181.638 191.922 182.848 190.938 183.699 189.676C184.55 188.414 185.004 186.93 185.004 185.412C185.002 183.378 184.185 181.427 182.733 179.988C181.281 178.549 179.313 177.74 177.259 177.738ZM177.259 190.035C176.337 190.035 175.435 189.764 174.668 189.256C173.901 188.748 173.303 188.026 172.95 187.181C172.596 186.337 172.504 185.407 172.684 184.51C172.864 183.614 173.308 182.79 173.961 182.144C174.613 181.497 175.444 181.057 176.349 180.878C177.254 180.7 178.192 180.792 179.045 181.142C179.897 181.491 180.625 182.084 181.138 182.844C181.651 183.604 181.924 184.498 181.924 185.412C181.923 186.638 181.431 187.813 180.556 188.679C179.682 189.546 178.496 190.033 177.259 190.035Z" fill="#00FFAC"/>
<path d="M90.6035 95.4836C96.6918 93.5234 100.939 105.763 107.059 103.792C113.179 101.822 109.344 89.4497 115.444 87.4857C121.543 85.5218 125.616 97.8172 131.899 95.7942C138.182 93.7712 134.158 81.4601 140.278 79.4897" stroke="#00FFAC" stroke-width="3"/>
<path d="M26.5928 68.572C28.5263 69.9646 25.7254 73.9272 27.6714 75.3288C29.6174 76.7303 32.5516 72.8638 34.49 74.2599C36.4284 75.656 33.5709 79.5777 35.5687 81.0166C37.5665 82.4555 40.4412 78.5461 42.3872 79.9477" stroke="#00FFAC" stroke-width="3.00034"/>
<path d="M16.6025 293.785C21.2056 289.376 30.4424 298.528 35.0694 294.096C39.6963 289.664 30.7712 280.214 35.3828 275.797C39.9944 271.379 49.0994 280.657 53.8497 276.107C58.6 271.557 49.5319 262.244 54.1588 257.812" stroke="#00FFAC" stroke-width="3"/>
<path d="M232.581 83.3887C237.263 87.7152 228.519 97.3307 233.226 101.68C237.932 106.029 246.993 96.7063 251.684 101.041C256.375 105.376 247.497 114.867 252.329 119.332C257.161 123.797 266.076 114.34 270.783 118.689" stroke="#00FFAC" stroke-width="3"/>
<path d="M168.921 221.628C172.399 224.842 165.902 231.99 169.399 235.222C172.897 238.453 179.633 231.527 183.118 234.747C186.602 237.967 180.006 245.023 183.597 248.341C187.188 251.659 193.817 244.633 197.314 247.865" stroke="#00FFAC" stroke-width="2"/>
<path d="M78.5947 254.523C80.9046 256.658 76.5915 261.397 78.9126 263.542C81.2336 265.687 85.7015 261.091 88.0132 263.227C90.3249 265.363 85.9488 270.044 88.3311 272.245C90.7133 274.447 95.1119 269.786 97.4324 271.931" stroke="#00FFAC" stroke-width="2"/>
<path d="M229.273 38.6443C235.675 38.6443 235.897 51.5859 242.333 51.5859C248.769 51.5859 248.981 38.6443 255.394 38.6443C261.806 38.6443 261.847 51.5859 268.453 51.5859C275.06 51.5859 275.077 38.6443 281.514 38.6443" stroke="#00FFAC" stroke-width="3"/>
<path d="M45.6387 185.146C49.5797 185.146 49.7196 193.117 53.6828 193.117C57.6461 193.117 57.7803 185.146 61.7274 185.146C65.6744 185.146 65.7024 193.117 69.7723 193.117C73.8423 193.117 73.8524 185.146 77.8156 185.146" stroke="#00FFAC" stroke-width="3"/>
<path d="M26.0596 170.113C26.7453 166.267 34.6933 167.517 35.3829 163.649C36.0725 159.78 28.1719 158.264 28.8588 154.411C29.5458 150.557 37.4735 151.921 38.1823 147.945C38.8911 143.969 30.9686 142.575 31.659 138.703" stroke="#00FFAC" stroke-width="3.00075"/>
<path d="M90.9961 232.051C94.9371 232.051 95.077 240.022 99.0402 240.022C103.003 240.022 103.138 232.051 107.085 232.051C111.032 232.051 111.06 240.022 115.13 240.022C119.2 240.022 119.21 232.051 123.173 232.051" stroke="#00FFAC" stroke-width="3"/>
<path d="M221.346 240.023C225.287 240.023 225.427 247.995 229.39 247.995C233.353 247.995 233.487 240.023 237.434 240.023C241.381 240.023 241.409 247.995 245.479 247.995C249.549 247.995 249.559 240.023 253.523 240.023" stroke="#00FFAC" stroke-width="3"/>
<path d="M113.378 44.1829L111.972 47.098C111.62 47.8269 110.931 48.3503 110.13 48.4981L106.876 49.0979L109.319 51.8094C109.818 52.3627 110.047 53.1016 109.947 53.8367L109.464 57.4051L112.157 55.9571C112.531 55.756 112.953 55.6498 113.378 55.6498C113.804 55.6498 114.226 55.756 114.6 55.957L117.292 57.4051L116.809 53.8367C116.71 53.1016 116.939 52.3626 117.437 51.8094L119.88 49.0979L116.627 48.4981C115.825 48.3502 115.137 47.8268 114.785 47.098L113.378 44.1829ZM113.378 41.3762C113.686 41.3762 113.994 41.5365 114.148 41.8572L116.325 46.3682C116.443 46.612 116.671 46.7854 116.939 46.8349L121.682 47.7095C122.336 47.83 122.606 48.6127 122.163 49.1044L118.711 52.936C118.545 53.1202 118.468 53.3671 118.501 53.6118L119.208 58.8302C119.301 59.516 118.568 60.0161 117.955 59.6861L113.785 57.4439C113.531 57.3073 113.225 57.3073 112.971 57.4439L108.802 59.6861C108.188 60.0161 107.456 59.516 107.549 58.8302L108.255 53.6118C108.288 53.3671 108.212 53.1202 108.046 52.936L104.594 49.1044C104.151 48.6127 104.42 47.8301 105.074 47.7095L109.817 46.8349C110.086 46.7854 110.314 46.612 110.431 46.3682L112.608 41.8572C112.763 41.5365 113.071 41.3762 113.378 41.3762Z" fill="#00FFAC"/>
<path d="M126.007 276.16L123.418 278.125C122.77 278.616 121.917 278.773 121.135 278.544L117.962 277.615L118.896 281.129C119.087 281.847 118.952 282.608 118.526 283.218L116.461 286.18L119.524 286.102C119.949 286.091 120.374 286.186 120.753 286.377C121.132 286.569 121.46 286.853 121.701 287.201L123.436 289.702L124.641 286.305C124.889 285.606 125.431 285.05 126.129 284.782L129.548 283.465L126.924 281.467C126.277 280.974 125.904 280.198 125.924 279.39L126.007 276.16ZM127.292 273.66C127.567 273.798 127.767 274.079 127.758 274.435L127.631 279.433C127.624 279.703 127.748 279.96 127.964 280.125L131.79 283.038C132.317 283.44 132.199 284.259 131.579 284.497L126.747 286.358C126.515 286.448 126.334 286.633 126.251 286.866L124.49 291.834C124.259 292.487 123.377 292.603 122.981 292.032L120.294 288.159C120.13 287.923 119.857 287.785 119.568 287.793L114.826 287.915C114.128 287.933 113.705 287.158 114.102 286.588L117.122 282.257C117.264 282.054 117.309 281.799 117.245 281.56L115.925 276.593C115.755 275.956 116.354 275.38 116.992 275.567L121.619 276.921C121.88 276.998 122.163 276.946 122.38 276.782L126.386 273.742C126.671 273.526 127.018 273.521 127.292 273.66Z" fill="#00FFAC"/>
<path d="M51.3509 223.729L49.9442 226.644C49.5925 227.373 48.904 227.896 48.1024 228.044L44.849 228.644L47.2919 231.355C47.7904 231.908 48.0193 232.647 47.9197 233.382L47.4367 236.951L50.1294 235.503C50.5032 235.302 50.9256 235.195 51.3509 235.195C51.7762 235.195 52.1985 235.302 52.5723 235.503L55.2651 236.951L54.782 233.382C54.6825 232.647 54.9113 231.908 55.4098 231.355L57.8527 228.644L54.5993 228.044C53.7977 227.896 53.1092 227.373 52.7575 226.644L51.3509 223.729ZM51.3509 220.922C51.6585 220.922 51.9662 221.082 52.121 221.403L54.2977 225.914C54.4153 226.158 54.6435 226.331 54.9116 226.381L59.6549 227.255C60.3088 227.376 60.5785 228.158 60.1355 228.65L56.6833 232.482C56.5173 232.666 56.4409 232.913 56.474 233.157L57.1804 238.376C57.2733 239.062 56.541 239.562 55.9273 239.232L51.758 236.99C51.5041 236.853 51.1977 236.853 50.9437 236.99L46.7745 239.232C46.1607 239.562 45.4284 239.062 45.5213 238.376L46.2277 233.157C46.2608 232.913 46.1844 232.666 46.0184 232.482L42.5663 228.65C42.1233 228.158 42.3929 227.376 43.0469 227.255L47.7901 226.381C48.0583 226.331 48.2864 226.158 48.4041 225.914L50.5808 221.403C50.7355 221.082 51.0432 220.922 51.3509 220.922Z" fill="#00FFAC"/>
<path d="M62.7776 80.5784L61.371 83.4935C61.0193 84.2224 60.3308 84.7458 59.5292 84.8936L56.2758 85.4934L58.7187 88.2049C59.2172 88.7582 59.446 89.4971 59.3465 90.2322L58.8634 93.8006L61.5561 92.3526C61.9299 92.1515 62.3523 92.0453 62.7776 92.0453C63.2029 92.0453 63.6253 92.1515 63.9991 92.3526L66.6918 93.8007L66.2088 90.2322C66.1092 89.4971 66.3381 88.7581 66.8366 88.2049L69.2795 85.4934L66.0261 84.8936C65.2245 84.7458 64.5359 84.2224 64.1842 83.4935L62.7776 80.5784ZM62.7776 77.7717C63.0853 77.7717 63.393 77.9321 63.5477 78.2527L65.7244 82.7637C65.8421 83.0075 66.0702 83.181 66.3384 83.2304L71.0816 84.105C71.7356 84.2256 72.0052 85.0082 71.5622 85.4999L68.1101 89.3315C67.9441 89.5157 67.8677 89.7626 67.9008 90.0073L68.6072 95.2257C68.7 95.9115 67.9678 96.4116 67.354 96.0816L63.1848 93.8394C62.9308 93.7028 62.6244 93.7028 62.3705 93.8394L58.2012 96.0816C57.5875 96.4116 56.8552 95.9115 56.948 95.2257L57.6545 90.0073C57.6876 89.7626 57.6111 89.5157 57.4452 89.3315L53.993 85.4999C53.55 85.0082 53.8197 84.2256 54.4736 84.105L59.2169 83.2304C59.485 83.181 59.7132 83.0075 59.8308 82.7637L62.0075 78.2527C62.1623 77.9321 62.4699 77.7717 62.7776 77.7717Z" fill="#00FFAC"/>
<path d="M181.936 36.906L180.529 39.8211C180.177 40.55 179.489 41.0734 178.687 41.2212L175.434 41.8211L177.877 44.5325C178.375 45.0858 178.604 45.8248 178.505 46.5599L178.022 50.1283L180.714 48.6802C181.088 48.4792 181.511 48.3729 181.936 48.3729C182.361 48.3729 182.784 48.4792 183.157 48.6802L185.85 50.1283L185.367 46.5599C185.267 45.8247 185.496 45.0858 185.995 44.5325L188.438 41.8211L185.184 41.2212C184.383 41.0734 183.694 40.55 183.342 39.8211L181.936 36.906ZM181.936 34.0994C182.244 34.0994 182.551 34.2597 182.706 34.5803L184.883 39.0913C185 39.3352 185.228 39.5086 185.497 39.558L190.24 40.4326C190.894 40.5532 191.163 41.3358 190.72 41.8275L187.268 45.6592C187.102 45.8434 187.026 46.0902 187.059 46.335L187.765 51.5533C187.858 52.2392 187.126 52.7393 186.512 52.4092L182.343 50.167C182.089 50.0305 181.783 50.0305 181.529 50.167L177.359 52.4092C176.746 52.7393 176.013 52.2392 176.106 51.5533L176.813 46.335C176.846 46.0902 176.769 45.8434 176.603 45.6592L173.151 41.8275C172.708 41.3358 172.978 40.5532 173.632 40.4326L178.375 39.558C178.643 39.5086 178.871 39.3352 178.989 39.0913L181.166 34.5803C181.32 34.2597 181.628 34.0994 181.936 34.0994Z" fill="#00FFAC"/>
<path d="M288.036 87.0462L286.63 89.9612C286.278 90.6901 285.59 91.2135 284.788 91.3613L281.535 91.9612L283.977 94.6726C284.476 95.2259 284.705 95.9649 284.605 96.7L284.122 100.268L286.815 98.8203C287.189 98.6193 287.611 98.513 288.036 98.513C288.462 98.513 288.884 98.6193 289.258 98.8203L291.951 100.268L291.468 96.7C291.368 95.9649 291.597 95.2259 292.095 94.6727L294.538 91.9612L291.285 91.3613C290.483 91.2135 289.795 90.6901 289.443 89.9612L288.036 87.0462ZM288.036 84.2395C288.344 84.2395 288.652 84.3998 288.806 84.7205L290.983 89.2315C291.101 89.4753 291.329 89.6487 291.597 89.6982L296.34 90.5728C296.994 90.6933 297.264 91.476 296.821 91.9677L293.369 95.7993C293.203 95.9835 293.126 96.2304 293.16 96.4751L293.866 101.693C293.959 102.379 293.227 102.879 292.613 102.549L288.444 100.307C288.19 100.171 287.883 100.171 287.629 100.307L283.46 102.549C282.846 102.879 282.114 102.379 282.207 101.693L282.913 96.4751C282.946 96.2304 282.87 95.9835 282.704 95.7993L279.252 91.9677C278.809 91.476 279.078 90.6933 279.732 90.5728L284.476 89.6982C284.744 89.6487 284.972 89.4753 285.09 89.2315L287.266 84.7205C287.421 84.3998 287.729 84.2395 288.036 84.2395Z" fill="#00FFAC"/>
<path d="M224.586 274.282L224.327 277.503C224.263 278.308 223.809 279.041 223.114 279.464L220.294 281.179L223.555 282.843C224.221 283.183 224.701 283.791 224.874 284.513L225.714 288.016L227.704 285.708C227.98 285.387 228.336 285.138 228.733 284.987C229.13 284.836 229.563 284.785 229.985 284.84L233.022 285.236L231.281 282.076C230.922 281.425 230.868 280.654 231.134 279.96L232.434 276.561L229.18 277.157C228.378 277.303 227.546 277.059 226.954 276.504L224.586 274.282ZM223.571 271.662C223.859 271.552 224.204 271.593 224.464 271.837L228.128 275.275C228.326 275.461 228.601 275.542 228.87 275.493L233.614 274.625C234.268 274.506 234.803 275.14 234.567 275.757L232.73 280.56C232.642 280.791 232.66 281.048 232.779 281.265L235.326 285.886C235.661 286.493 235.158 287.22 234.465 287.13L229.762 286.517C229.476 286.48 229.19 286.589 229.002 286.807L225.921 290.38C225.467 290.907 224.602 290.7 224.441 290.026L223.213 284.904C223.156 284.664 222.995 284.46 222.774 284.347L218.165 281.996C217.574 281.694 217.542 280.868 218.109 280.523L222.221 278.022C222.454 277.881 222.604 277.638 222.626 277.368L223.026 272.384C223.055 272.03 223.284 271.771 223.571 271.662Z" fill="#00FFAC"/>
<path d="M269.265 209.977L267.858 212.892C267.507 213.621 266.818 214.144 266.016 214.292L262.763 214.892L265.206 217.604C265.704 218.157 265.933 218.896 265.834 219.631L265.351 223.199L268.043 221.751C268.417 221.55 268.84 221.444 269.265 221.444C269.69 221.444 270.113 221.55 270.486 221.751L273.179 223.199L272.696 219.631C272.597 218.896 272.825 218.157 273.324 217.604L275.767 214.892L272.513 214.292C271.712 214.144 271.023 213.621 270.672 212.892L269.265 209.977ZM269.265 207.17C269.573 207.17 269.88 207.331 270.035 207.651L272.212 212.162C272.329 212.406 272.558 212.58 272.826 212.629L277.569 213.504C278.223 213.624 278.493 214.407 278.05 214.899L274.597 218.73C274.431 218.914 274.355 219.161 274.388 219.406L275.095 224.624C275.187 225.31 274.455 225.81 273.841 225.48L269.672 223.238C269.418 223.102 269.112 223.102 268.858 223.238L264.689 225.48C264.075 225.81 263.343 225.31 263.435 224.624L264.142 219.406C264.175 219.161 264.098 218.914 263.932 218.73L260.48 214.899C260.037 214.407 260.307 213.624 260.961 213.504L265.704 212.629C265.972 212.58 266.2 212.406 266.318 212.162L268.495 207.651C268.65 207.331 268.957 207.17 269.265 207.17Z" fill="#00FFAC"/>
<path d="M151.738 68.916C154.637 68.916 156.987 66.5874 156.987 63.7148C156.987 60.8423 154.637 58.5137 151.738 58.5137C148.839 58.5137 146.489 60.8423 146.489 63.7148C146.489 66.5874 148.839 68.916 151.738 68.916Z" stroke="#00FFAC" stroke-width="3"/>
<path d="M132.967 27.6709C135.865 27.6709 138.215 25.3422 138.215 22.4697C138.215 19.5972 135.865 17.2686 132.967 17.2686C130.068 17.2686 127.718 19.5972 127.718 22.4697C127.718 25.3422 130.068 27.6709 132.967 27.6709Z" stroke="#00FFAC" stroke-width="3"/>
<path d="M66.0417 161.925C68.9405 161.925 71.2905 159.596 71.2905 156.724C71.2905 153.851 68.9405 151.523 66.0417 151.523C63.1429 151.523 60.793 153.851 60.793 156.724C60.793 159.596 63.1429 161.925 66.0417 161.925Z" stroke="#00FFAC" stroke-width="3"/>
<path d="M28.4988 217.728C31.3976 217.728 33.7475 215.399 33.7475 212.527C33.7475 209.654 31.3976 207.326 28.4988 207.326C25.5999 207.326 23.25 209.654 23.25 212.527C23.25 215.399 25.5999 217.728 28.4988 217.728Z" stroke="#00FFAC" stroke-width="3"/>
<path d="M237.434 174.056C238.981 174.056 240.235 172.814 240.235 171.281C240.235 169.748 238.981 168.506 237.434 168.506C235.888 168.506 234.634 169.748 234.634 171.281C234.634 172.814 235.888 174.056 237.434 174.056Z" stroke="#00FFAC" stroke-width="3"/>
<path d="M52.9833 35.758C54.53 35.758 55.7839 34.5155 55.7839 32.9828C55.7839 31.45 54.53 30.2075 52.9833 30.2075C51.4365 30.2075 50.1826 31.45 50.1826 32.9828C50.1826 34.5155 51.4365 35.758 52.9833 35.758Z" stroke="#00FFAC" stroke-width="3"/>
<path d="M269.265 257.359C270.811 257.359 272.065 256.116 272.065 254.584C272.065 253.051 270.811 251.808 269.265 251.808C267.718 251.808 266.464 253.051 266.464 254.584C266.464 256.116 267.718 257.359 269.265 257.359Z" stroke="#00FFAC" stroke-width="3"/>
<path d="M219.479 210.45C221.026 210.45 222.28 209.207 222.28 207.675C222.28 206.142 221.026 204.899 219.479 204.899C217.933 204.899 216.679 206.142 216.679 207.675C216.679 209.207 217.933 210.45 219.479 210.45Z" stroke="#00FFAC" stroke-width="3"/>
<path d="M244.78 83.4731C247.679 83.4731 250.029 81.1445 250.029 78.272C250.029 75.3994 247.679 73.0708 244.78 73.0708C241.881 73.0708 239.531 75.3994 239.531 78.272C239.531 81.1445 241.881 83.4731 244.78 83.4731Z" stroke="#00FFAC" stroke-width="3"/>
<path d="M192.546 89.9453C195.444 89.9453 197.794 87.6167 197.794 84.7441C197.794 81.8716 195.444 79.543 192.546 79.543C189.647 79.543 187.297 81.8716 187.297 84.7441C187.297 87.6167 189.647 89.9453 192.546 89.9453Z" stroke="#00FFAC" stroke-width="3"/>
<path d="M196.627 295.369C199.525 295.369 201.875 293.04 201.875 290.167C201.875 287.295 199.525 284.966 196.627 284.966C193.728 284.966 191.378 287.295 191.378 290.167C191.378 293.04 193.728 295.369 196.627 295.369Z" stroke="#00FFAC" stroke-width="3"/>
<path d="M164.797 263.828C167.695 263.828 170.045 261.499 170.045 258.626C170.045 255.754 167.695 253.425 164.797 253.425C161.898 253.425 159.548 255.754 159.548 258.626C159.548 261.499 161.898 263.828 164.797 263.828Z" stroke="#00FFAC" stroke-width="3"/>
<path d="M40.7441 40.7322L45.6359 52.7298" stroke="#00FFAC" stroke-width="2" stroke-linecap="round" stroke-dasharray="5 6"/>
<path d="M37.1367 49.1553L49.2442 44.3079" stroke="#00FFAC" stroke-width="2" stroke-linecap="round" stroke-dasharray="5 6"/>
<path d="M282.976 150.419L280.038 163.027" stroke="#00FFAC" stroke-width="2" stroke-linecap="round" stroke-dasharray="5 6"/>
<path d="M275.145 155.267L287.868 158.178" stroke="#00FFAC" stroke-width="2" stroke-linecap="round" stroke-dasharray="5 6"/>
<path d="M75.6719 118.837L72.7344 131.446" stroke="#00FFAC" stroke-width="2" stroke-linecap="round" stroke-dasharray="5 6"/>
<path d="M67.8408 123.686L80.5644 126.596" stroke="#00FFAC" stroke-width="2" stroke-linecap="round" stroke-dasharray="5 6"/>
<path d="M297.336 277.394L294.398 290.002" stroke="#00FFAC" stroke-width="2" stroke-linecap="round" stroke-dasharray="5 6"/>
<path d="M289.505 282.242L302.229 285.153" stroke="#00FFAC" stroke-width="2" stroke-linecap="round" stroke-dasharray="5 6"/>
<path d="M224.698 129.608L221.761 142.216" stroke="#00FFAC" stroke-width="2" stroke-linecap="round" stroke-dasharray="5 6"/>
<path d="M216.867 134.456L229.591 137.367" stroke="#00FFAC" stroke-width="2" stroke-linecap="round" stroke-dasharray="5 6"/>
<path d="M246.248 186.812L243.311 199.42" stroke="#00FFAC" stroke-width="2" stroke-linecap="round" stroke-dasharray="5 6"/>
<path d="M238.418 191.661L251.142 194.572" stroke="#00FFAC" stroke-width="2" stroke-linecap="round" stroke-dasharray="5 6"/>
<path d="M35.0303 110.718L39.922 122.716" stroke="#00FFAC" stroke-width="2" stroke-linecap="round" stroke-dasharray="5 6"/>
<path d="M31.4229 119.141L43.5303 114.294" stroke="#00FFAC" stroke-width="2" stroke-linecap="round" stroke-dasharray="5 6"/>
<defs>
<linearGradient id="paint0_linear_1632_6445" x1="160.15" y1="0" x2="160.15" y2="319.09" gradientUnits="userSpaceOnUse">
<stop stop-color="#5EF0C1"/>
<stop offset="1" stop-color="#079567"/>
</linearGradient>
</defs>
</svg>
