<svg width="56" height="48" viewBox="0 0 56 48" fill="none" xmlns="http://www.w3.org/2000/svg">
<path d="M35.96 20.96C35.29 20.22 34.28 19.79 32.88 19.64V18.88C32.88 17.51 32.3 16.19 31.28 15.27C30.25 14.33 28.91 13.89 27.52 14.02C25.13 14.25 23.12 16.56 23.12 19.06V19.64C21.72 19.79 20.71 20.22 20.04 20.96C19.07 22.04 19.1 23.48 19.21 24.48L19.91 30.05C20.12 32 20.91 34 25.21 34H30.79C35.09 34 35.88 32 36.09 30.06L36.79 24.47C36.9 23.48 36.92 22.04 35.96 20.96ZM27.66 15.41C28.66 15.32 29.61 15.63 30.35 16.3C31.08 16.96 31.49 17.9 31.49 18.88V19.58H24.51V19.06C24.51 17.28 25.98 15.57 27.66 15.41ZM24.42 25.15H24.41C23.86 25.15 23.41 24.7 23.41 24.15C23.41 23.6 23.86 23.15 24.41 23.15C24.97 23.15 25.42 23.6 25.42 24.15C25.42 24.7 24.97 25.15 24.42 25.15ZM31.42 25.15H31.41C30.86 25.15 30.41 24.7 30.41 24.15C30.41 23.6 30.86 23.15 31.41 23.15C31.97 23.15 32.42 23.6 32.42 24.15C32.42 24.7 31.97 25.15 31.42 25.15Z" fill="#62C4A4"/>
<rect x="1" y="1" width="54" height="46" rx="23" stroke="#62C4A4" stroke-width="2"/>
</svg>
