<svg width="57" height="48" viewBox="0 0 57 48" fill="none" xmlns="http://www.w3.org/2000/svg">
<g id="India">
<g id="india flag">
<path id="Path 5467" d="M45.579 20.3459H12.105V13.6119C12.105 13.4589 12.1658 13.3121 12.274 13.2039C12.3822 13.0957 12.529 13.0349 12.682 13.0349H45.005C45.158 13.0349 45.3048 13.0957 45.413 13.2039C45.5212 13.3121 45.582 13.4589 45.582 13.6119V20.3449L45.579 20.3459Z" fill="#FAB446"/>
<path id="Path 5468" d="M45.005 34.964H12.682C12.5293 34.964 12.3828 34.9035 12.2747 34.7957C12.1665 34.6879 12.1055 34.5417 12.105 34.389V27.656H45.579V34.389C45.5785 34.5412 45.5178 34.687 45.4103 34.7947C45.3028 34.9023 45.1571 34.9632 45.005 34.964Z" fill="#73AF00"/>
<path id="Rectangle 2415" d="M45.579 20.345H12.105V27.655H45.579V20.345Z" fill="#F5F5F5"/>
<g id="Group 4344">
<path id="Path 5469" d="M28.842 27.1019C28.2289 27.1019 27.6295 26.92 27.1197 26.5794C26.6099 26.2388 26.2126 25.7546 25.978 25.1882C25.7433 24.6217 25.682 23.9984 25.8016 23.3971C25.9212 22.7957 26.2164 22.2434 26.65 21.8098C27.0835 21.3763 27.6359 21.081 28.2372 20.9614C28.8386 20.8418 29.4619 20.9032 30.0283 21.1378C30.5948 21.3725 31.0789 21.7698 31.4196 22.2796C31.7602 22.7894 31.942 23.3887 31.942 24.0019C31.9407 24.8236 31.6137 25.6114 31.0326 26.1924C30.4515 26.7735 29.6638 27.1005 28.842 27.1019ZM28.842 21.4749C28.3426 21.4749 27.8544 21.6229 27.4392 21.9004C27.024 22.1778 26.7003 22.5722 26.5092 23.0336C26.3181 23.495 26.2681 24.0027 26.3655 24.4925C26.463 24.9823 26.7034 25.4322 27.0566 25.7853C27.4097 26.1384 27.8596 26.3789 28.3494 26.4763C28.8392 26.5738 29.3469 26.5238 29.8083 26.3327C30.2697 26.1415 30.664 25.8179 30.9415 25.4027C31.2189 24.9874 31.367 24.4993 31.367 23.9999C31.3662 23.3304 31.0999 22.6886 30.6266 22.2153C30.1532 21.7419 29.5114 21.4757 28.842 21.4749Z" fill="#41479B"/>
<path id="Ellipse 519" d="M28.842 24.3519C29.0364 24.3519 29.194 24.1944 29.194 23.9999C29.194 23.8055 29.0364 23.6479 28.842 23.6479C28.6476 23.6479 28.49 23.8055 28.49 23.9999C28.49 24.1944 28.6476 24.3519 28.842 24.3519Z" fill="#41479B"/>
<path id="Path 5470" d="M28.842 24.0529L27.948 24.1429L26.028 24.0529V23.9469L27.948 23.8569L28.842 23.9469V24.0529Z" fill="#41479B"/>
<path id="Path 5471" d="M28.842 24.0529L29.736 24.1429L31.656 24.0529V23.9469L29.736 23.8569L28.842 23.9469V24.0529Z" fill="#41479B"/>
<path id="Path 5472" d="M28.789 23.9998L28.699 23.1058L28.789 21.1858H28.895L28.985 23.1058L28.895 23.9998H28.789Z" fill="#41479B"/>
<path id="Path 5473" d="M28.789 23.9998L28.699 24.8938L28.789 26.8138H28.895L28.985 24.8938L28.895 23.9998H28.789Z" fill="#41479B"/>
<path id="Path 5474" d="M28.805 24.0369L28.105 23.4689L26.815 22.0479L26.89 21.9729L28.311 23.2629L28.879 23.9629L28.805 24.0369Z" fill="#41479B"/>
<path id="Path 5475" d="M28.805 24.0369L29.373 24.7369L30.794 26.0309L30.869 25.9559L29.575 24.5309L28.875 23.9629L28.805 24.0369Z" fill="#41479B"/>
<path id="Path 5476" d="M28.805 23.9628L29.373 23.2627L30.794 21.9688L30.869 22.0437L29.575 23.4687L28.875 24.0367L28.805 23.9628Z" fill="#41479B"/>
<path id="Path 5477" d="M28.805 23.9629L28.105 24.5309L26.815 25.9519L26.89 26.0269L28.311 24.7329L28.879 24.0329L28.805 23.9629Z" fill="#41479B"/>
<path id="Path 5478" d="M28.862 24.0488L28.071 24.4738L26.263 25.1248L26.223 25.0248L27.962 24.2068L28.822 23.9478L28.862 24.0488Z" fill="#41479B"/>
<path id="Path 5479" d="M28.862 24.0488L29.722 23.7898L31.461 22.9718L31.421 22.8718L29.613 23.5228L28.822 23.9478L28.862 24.0488Z" fill="#41479B"/>
<path id="Path 5480" d="M28.793 24.0199L28.368 23.2289L27.717 21.4209L27.817 21.3809L28.635 23.1199L28.894 23.9799L28.793 24.0199Z" fill="#41479B"/>
<path id="Path 5481" d="M28.793 24.0197L29.052 24.8797L29.87 26.6187L29.97 26.5787L29.319 24.7707L28.894 23.9797L28.793 24.0197Z" fill="#41479B"/>
<path id="Path 5482" d="M28.822 24.0488L27.962 23.7898L26.223 22.9718L26.263 22.8718L28.071 23.5228L28.862 23.9478L28.822 24.0488Z" fill="#41479B"/>
<path id="Path 5483" d="M28.822 24.0488L29.613 24.4738L31.421 25.1248L31.461 25.0248L29.722 24.2068L28.862 23.9478L28.822 24.0488Z" fill="#41479B"/>
<path id="Path 5484" d="M28.793 23.9799L29.052 23.1199L29.87 21.3809L29.97 21.4209L29.319 23.2289L28.894 24.0199L28.793 23.9799Z" fill="#41479B"/>
<path id="Path 5485" d="M28.793 23.9797L28.368 24.7707L27.717 26.5787L27.817 26.6187L28.635 24.8797L28.894 24.0197L28.793 23.9797Z" fill="#41479B"/>
</g>
<path id="Ellipse 520" d="M28.841 24.4739C29.1028 24.4739 29.315 24.2617 29.315 23.9999C29.315 23.7381 29.1028 23.5259 28.841 23.5259C28.5792 23.5259 28.367 23.7381 28.367 23.9999C28.367 24.2617 28.5792 24.4739 28.841 24.4739Z" fill="#F5F5F5"/>
<path id="Ellipse 521" d="M28.841 24.2838C28.9979 24.2838 29.125 24.1567 29.125 23.9998C29.125 23.843 28.9979 23.7158 28.841 23.7158C28.6842 23.7158 28.557 23.843 28.557 23.9998C28.557 24.1567 28.6842 24.2838 28.841 24.2838Z" fill="#41479B"/>
</g>
</g>
</svg>
