<svg width="16" height="20" viewBox="0 0 16 20" fill="none" xmlns="http://www.w3.org/2000/svg">
<path d="M7.96459 5.37012C7.33841 5.37012 6.7263 5.5558 6.20565 5.90368C5.685 6.25157 5.27921 6.74603 5.03958 7.32454C4.79996 7.90305 4.73726 8.53963 4.85942 9.15377C4.98158 9.76792 5.28311 10.332 5.72588 10.7748C6.16866 11.2176 6.73279 11.5191 7.34693 11.6413C7.96107 11.7634 8.59765 11.7007 9.17616 11.4611C9.75467 11.2215 10.2491 10.8157 10.597 10.2951C10.9449 9.77441 11.1306 9.16229 11.1306 8.53612C11.1306 7.69644 10.797 6.89116 10.2033 6.29742C9.60955 5.70368 8.80426 5.37012 7.96459 5.37012ZM7.96459 10.1201C7.65158 10.1199 7.34566 10.0269 7.08549 9.85292C6.82532 9.6789 6.62258 9.43166 6.50289 9.14244C6.3832 8.85323 6.35194 8.53502 6.41305 8.22804C6.47416 7.92107 6.62491 7.63909 6.84624 7.41777C7.06756 7.19644 7.34953 7.0457 7.65651 6.98458C7.96349 6.92347 8.2817 6.95474 8.57091 7.07442C8.86013 7.19411 9.10737 7.39686 9.28138 7.65703C9.4554 7.9172 9.54839 8.22311 9.54859 8.53612C9.54872 8.74417 9.50784 8.9502 9.42828 9.14244C9.34872 9.33468 9.23205 9.50935 9.08494 9.65647C8.93782 9.80358 8.76315 9.92025 8.57091 9.99981C8.37867 10.0794 8.17264 10.1202 7.96459 10.1201Z" fill="#999999"/>
<path d="M7.9605 19.621C7.29382 19.6244 6.63604 19.468 6.04223 19.1649C5.44842 18.8618 4.93587 18.4209 4.5475 17.879C1.5305 13.718 0.00050004 10.589 0.00050004 8.579C-0.0113003 7.52624 0.185862 6.48159 0.580572 5.50555C0.975282 4.52951 1.5597 3.64147 2.29997 2.89285C3.04025 2.14422 3.92169 1.54989 4.89325 1.14427C5.8648 0.738644 6.90717 0.529785 7.96 0.529785C9.01283 0.529785 10.0552 0.738644 11.0268 1.14427C11.9983 1.54989 12.8797 2.14422 13.62 2.89285C14.3603 3.64147 14.9447 4.52951 15.3394 5.50555C15.7341 6.48159 15.9313 7.52624 15.9195 8.579C15.9195 10.588 14.3895 13.716 11.3725 17.879C10.9842 18.4207 10.4718 18.8616 9.87821 19.1647C9.28459 19.4678 8.62701 19.6242 7.9605 19.621ZM7.9605 2.349C6.30901 2.35191 4.72603 3.00939 3.55844 4.17736C2.39085 5.34532 1.73388 6.92852 1.7315 8.58C1.7315 10.171 3.2315 13.113 5.9495 16.865C6.18047 17.1829 6.4834 17.4417 6.83353 17.6201C7.18366 17.7985 7.57104 17.8915 7.964 17.8915C8.35696 17.8915 8.74434 17.7985 9.09447 17.6201C9.4446 17.4417 9.74753 17.1829 9.9785 16.865C12.6985 13.114 14.1965 10.171 14.1965 8.58C14.1946 6.92696 13.5369 5.34219 12.3678 4.17359C11.1986 3.00499 9.61355 2.34806 7.9605 2.347V2.349Z" fill="#999999"/>
</svg>
