<svg width="16" height="16" viewBox="0 0 16 16" fill="none" xmlns="http://www.w3.org/2000/svg">
<path d="M10.7933 1.33325H5.20666C2.77999 1.33325 1.33333 2.77992 1.33333 5.20659V10.7866C1.33333 13.2199 2.77999 14.6666 5.20666 14.6666H10.7867C13.2133 14.6666 14.66 13.2199 14.66 10.7933V5.20659C14.6667 2.77992 13.22 1.33325 10.7933 1.33325ZM12 8.49992H3.99999C3.72666 8.49992 3.49999 8.27325 3.49999 7.99992C3.49999 7.72659 3.72666 7.49992 3.99999 7.49992H12C12.2733 7.49992 12.5 7.72659 12.5 7.99992C12.5 8.27325 12.2733 8.49992 12 8.49992Z" fill="white"/>
</svg>
