<svg width="20" height="20" viewBox="0 0 20 20" fill="none" xmlns="http://www.w3.org/2000/svg">
<path d="M19.7064 9.88333C19.7064 11.7439 19.1363 13.5626 18.0683 15.1096C17.0003 16.6566 15.4823 17.8623 13.7063 18.5743C11.9302 19.2863 9.97594 19.4726 8.09052 19.1096C6.2051 18.7466 4.47324 17.8507 3.11393 16.5351C1.75462 15.2195 0.82888 13.5433 0.453847 11.7185C0.0788131 9.89376 0.271322 8.00232 1.00698 6.28342C1.74263 4.56451 2.98839 3.09536 4.58678 2.06171C6.18516 1.02805 8.06436 0.476318 9.98672 0.476318C12.5645 0.476318 15.0368 1.46741 16.8596 3.23157C18.6823 4.99572 19.7064 7.38844 19.7064 9.88333ZM8.86261 14.8663L16.0725 7.88834C16.1309 7.83203 16.1773 7.76508 16.2089 7.69138C16.2406 7.61767 16.2569 7.53865 16.2569 7.45883C16.2569 7.37901 16.2406 7.29999 16.2089 7.22629C16.1773 7.15258 16.1309 7.08564 16.0725 7.02933L15.1849 6.17734C15.1268 6.12095 15.0578 6.07621 14.9819 6.04568C14.9059 6.01516 14.8245 5.99942 14.7422 5.99942C14.6599 5.99942 14.5785 6.01516 14.5025 6.04568C14.4265 6.07621 14.3575 6.12095 14.2994 6.17734L8.41826 11.8663L5.67197 9.20233C5.55406 9.08881 5.39451 9.02509 5.2282 9.02509C5.06188 9.02509 4.90233 9.08881 4.78442 9.20233L3.89686 10.0663C3.77957 10.1805 3.71373 10.3349 3.71373 10.4958C3.71373 10.6568 3.77957 10.8112 3.89686 10.9253L7.97606 14.8663C8.03424 14.9229 8.10341 14.9678 8.17957 14.9984C8.25572 15.029 8.33737 15.0448 8.41984 15.0448C8.50231 15.0448 8.58396 15.029 8.66011 14.9984C8.73627 14.9678 8.80443 14.9229 8.86261 14.8663Z" fill="#60C2A2"/>
</svg>
