<svg width="19" height="20" viewBox="0 0 19 20" fill="none" xmlns="http://www.w3.org/2000/svg">
<path d="M9.5 13.2891C8.87363 13.2891 8.26132 13.1034 7.74051 12.7554C7.2197 12.4074 6.81378 11.9127 6.57407 11.3341C6.33437 10.7554 6.27165 10.1186 6.39385 9.50424C6.51605 8.88991 6.81768 8.3256 7.26059 7.88269C7.70351 7.43977 8.26781 7.13815 8.88215 7.01595C9.49649 6.89375 10.1333 6.95647 10.712 7.19617C11.2907 7.43587 11.7853 7.84179 12.1333 8.3626C12.4813 8.88341 12.667 9.49572 12.667 10.1221C12.667 10.962 12.3333 11.7676 11.7394 12.3615C11.1455 12.9554 10.3399 13.2891 9.5 13.2891ZM9.5 8.53909C9.18691 8.53909 8.88085 8.63194 8.62053 8.80588C8.36021 8.97982 8.15731 9.22705 8.0375 9.51631C7.91769 9.80556 7.88634 10.1239 7.94742 10.4309C8.0085 10.738 8.15926 11.0201 8.38065 11.2414C8.60204 11.4628 8.8841 11.6136 9.19117 11.6747C9.49824 11.7358 9.81653 11.7044 10.1058 11.5846C10.395 11.4648 10.6423 11.2619 10.8162 11.0016C10.9902 10.7412 11.083 10.4352 11.083 10.1221C11.083 9.70226 10.9162 9.29961 10.6194 9.00274C10.3225 8.70587 9.91984 8.53909 9.5 8.53909ZM14.25 18.8311C14.25 17.5713 13.7496 16.3631 12.8588 15.4723C11.968 14.5815 10.7598 14.0811 9.5 14.0811C8.24022 14.0811 7.03204 14.5815 6.14124 15.4723C5.25045 16.3631 4.75 17.5713 4.75 18.8311C4.74622 18.9374 4.7639 19.0434 4.80197 19.1427C4.84005 19.242 4.89774 19.3327 4.97161 19.4092C5.04548 19.4858 5.13401 19.5466 5.23193 19.5882C5.32984 19.6298 5.43512 19.6512 5.5415 19.6512C5.64788 19.6512 5.75316 19.6298 5.85107 19.5882C5.94899 19.5466 6.03752 19.4858 6.11139 19.4092C6.18526 19.3327 6.24295 19.242 6.28103 19.1427C6.3191 19.0434 6.33678 18.9374 6.333 18.8311C6.34775 18.001 6.68785 17.2099 7.28008 16.6282C7.87231 16.0464 8.66931 15.7204 9.4995 15.7204C10.3297 15.7204 11.1267 16.0464 11.7189 16.6282C12.3112 17.2099 12.6512 18.001 12.666 18.8311C12.6622 18.9374 12.6799 19.0434 12.718 19.1427C12.756 19.242 12.8137 19.3327 12.8876 19.4092C12.9615 19.4858 13.05 19.5466 13.1479 19.5882C13.2458 19.6298 13.3511 19.6512 13.4575 19.6512C13.5639 19.6512 13.6692 19.6298 13.7671 19.5882C13.865 19.5466 13.9535 19.4858 14.0274 19.4092C14.1013 19.3327 14.159 19.242 14.197 19.1427C14.2351 19.0434 14.2528 18.9374 14.249 18.8311H14.25ZM14.25 6.9561C13.6236 6.9561 13.0113 6.77035 12.4905 6.42236C11.9697 6.07437 11.5638 5.57975 11.3241 5.00105C11.0844 4.42236 11.0217 3.78558 11.1439 3.17124C11.2661 2.55691 11.5677 1.9926 12.0106 1.54969C12.4535 1.10678 13.0178 0.805148 13.6321 0.682948C14.2465 0.560749 14.8833 0.623466 15.462 0.863169C16.0407 1.10287 16.5353 1.50879 16.8833 2.0296C17.2313 2.55041 17.417 3.16272 17.417 3.7891C17.4167 4.62886 17.083 5.43414 16.4891 6.02786C15.8952 6.62157 15.0898 6.9551 14.25 6.9551V6.9561ZM14.25 2.2061C13.9369 2.2061 13.6309 2.29894 13.3705 2.47288C13.1102 2.64682 12.9073 2.89405 12.7875 3.18331C12.6677 3.47256 12.6363 3.79085 12.6974 4.09792C12.7585 4.40499 12.9093 4.68706 13.1306 4.90845C13.352 5.12983 13.6341 5.2806 13.9412 5.34168C14.2482 5.40276 14.5665 5.37141 14.8558 5.2516C15.145 5.13178 15.3923 4.92889 15.5662 4.66856C15.7402 4.40824 15.833 4.10218 15.833 3.7891C15.8331 3.58113 15.7923 3.37517 15.7128 3.183C15.6333 2.99083 15.5167 2.8162 15.3697 2.6691C15.2227 2.522 15.0481 2.40531 14.856 2.32569C14.6639 2.24607 14.458 2.2051 14.25 2.2051V2.2061ZM19 12.4971C18.9987 11.2377 18.4978 10.0303 17.6073 9.1398C16.7168 8.24929 15.5094 7.74842 14.25 7.7471C14.045 7.75438 13.8507 7.84097 13.7082 7.98861C13.5658 8.13624 13.4861 8.33342 13.4861 8.5386C13.4861 8.74377 13.5658 8.94095 13.7082 9.08859C13.8507 9.23622 14.045 9.32281 14.25 9.3301C15.0899 9.3301 15.8955 9.66376 16.4894 10.2577C17.0833 10.8516 17.417 11.6572 17.417 12.4971C17.4132 12.6034 17.4309 12.7094 17.469 12.8087C17.507 12.908 17.5647 12.9987 17.6386 13.0752C17.7125 13.1518 17.801 13.2126 17.8989 13.2542C17.9968 13.2958 18.1021 13.3172 18.2085 13.3172C18.3149 13.3172 18.4202 13.2958 18.5181 13.2542C18.616 13.2126 18.7045 13.1518 18.7784 13.0752C18.8523 12.9987 18.91 12.908 18.948 12.8087C18.9861 12.7094 19.0038 12.6034 19 12.4971ZM4.75 6.9551C4.12358 6.9551 3.51124 6.76933 2.99041 6.42129C2.46957 6.07325 2.06365 5.57857 1.82398 4.99982C1.5843 4.42107 1.52165 3.78424 1.64393 3.16988C1.76621 2.55551 2.06793 1.99121 2.51095 1.54833C2.95396 1.10546 3.51836 0.803913 4.13276 0.681826C4.74717 0.55974 5.38398 0.6226 5.96265 0.862456C6.54133 1.10231 7.03588 1.50839 7.38375 2.02933C7.73162 2.55027 7.9172 3.16268 7.917 3.7891C7.91673 4.62886 7.58295 5.43414 6.98905 6.02786C6.39515 6.62157 5.58977 6.9551 4.75 6.9551ZM4.75 2.2051C4.43695 2.2051 4.13094 2.29791 3.87064 2.47181C3.61033 2.64571 3.40744 2.89288 3.28759 3.18208C3.16775 3.47127 3.13634 3.78951 3.19734 4.09656C3.25834 4.4036 3.40901 4.68567 3.6303 4.90709C3.85158 5.12852 4.13355 5.27936 4.44056 5.34056C4.74757 5.40175 5.06582 5.37054 5.3551 5.25088C5.64437 5.13122 5.89167 4.92848 6.06573 4.66829C6.23979 4.4081 6.3328 4.10214 6.333 3.7891C6.33313 3.58113 6.29228 3.37517 6.21279 3.183C6.13329 2.99083 6.01671 2.8162 5.8697 2.6691C5.7227 2.522 5.54814 2.40531 5.35602 2.32569C5.1639 2.24607 4.95797 2.2051 4.75 2.2051ZM1.583 12.4971C1.583 11.6572 1.91667 10.8516 2.51059 10.2577C3.10452 9.66376 3.91006 9.3301 4.75 9.3301C4.85631 9.33387 4.96229 9.3162 5.06162 9.27812C5.16094 9.24005 5.25159 9.18236 5.32813 9.10849C5.40467 9.03461 5.46555 8.94608 5.50713 8.84817C5.54871 8.75026 5.57014 8.64497 5.57014 8.5386C5.57014 8.43222 5.54871 8.32693 5.50713 8.22902C5.46555 8.13111 5.40467 8.04258 5.32813 7.96871C5.25159 7.89483 5.16094 7.83714 5.06162 7.79907C4.96229 7.76099 4.85631 7.74332 4.75 7.7471C3.49063 7.74842 2.28322 8.24929 1.3927 9.1398C0.502194 10.0303 0.00132357 11.2377 0 12.4971C0.00728958 12.7021 0.0938711 12.8964 0.24151 13.0388C0.389148 13.1813 0.586321 13.261 0.7915 13.261C0.996679 13.261 1.19385 13.1813 1.34149 13.0388C1.48913 12.8964 1.57571 12.7021 1.583 12.4971Z" fill="#999999"/>
</svg>
