<svg width="24" height="25" viewBox="0 0 24 25" fill="none" xmlns="http://www.w3.org/2000/svg">
<path d="M17.53 7.84788C17.46 7.83788 17.39 7.83788 17.32 7.84788C15.77 7.79788 14.54 6.52788 14.54 4.96788C14.54 3.37788 15.83 2.07788 17.43 2.07788C19.02 2.07788 20.32 3.36788 20.32 4.96788C20.31 6.52788 19.08 7.79788 17.53 7.84788Z" fill="#E0F3ED"/>
<path d="M20.7901 14.7778C19.6701 15.5278 18.1001 15.8078 16.6501 15.6178C17.0301 14.7978 17.2301 13.8878 17.2401 12.9278C17.2401 11.9278 17.0201 10.9778 16.6001 10.1478C18.0801 9.9478 19.6501 10.2278 20.7801 10.9778C22.3601 12.0178 22.3601 13.7278 20.7901 14.7778Z" fill="#E0F3ED"/>
<path d="M6.43991 7.84788C6.50991 7.83788 6.57991 7.83788 6.64991 7.84788C8.19991 7.79788 9.42991 6.52788 9.42991 4.96788C9.42991 3.36788 8.13991 2.07788 6.53991 2.07788C4.94991 2.07788 3.65991 3.36788 3.65991 4.96788C3.65991 6.52788 4.88991 7.79788 6.43991 7.84788Z" fill="#E0F3ED"/>
<path d="M6.55012 12.928C6.55012 13.898 6.76012 14.818 7.14012 15.648C5.73012 15.798 4.26012 15.498 3.18012 14.788C1.60012 13.738 1.60012 12.028 3.18012 10.978C4.25012 10.258 5.76012 9.96798 7.18012 10.128C6.77012 10.968 6.55012 11.918 6.55012 12.928Z" fill="#E0F3ED"/>
<path d="M12.12 15.9479C12.04 15.9379 11.95 15.9379 11.86 15.9479C10.02 15.8879 8.55005 14.3779 8.55005 12.5179C8.56005 10.6179 10.09 9.07788 12 9.07788C13.9 9.07788 15.44 10.6179 15.44 12.5179C15.43 14.3779 13.97 15.8879 12.12 15.9479Z" fill="#E0F3ED"/>
<path d="M8.87005 18.0178C7.36005 19.0278 7.36005 20.6878 8.87005 21.6878C10.59 22.8378 13.41 22.8378 15.13 21.6878C16.64 20.6778 16.64 19.0178 15.13 18.0178C13.42 16.8678 10.6 16.8678 8.87005 18.0178Z" fill="#E0F3ED"/>
</svg>
