<svg width="20" height="20" viewBox="0 0 20 20" fill="none" xmlns="http://www.w3.org/2000/svg">
<g id="share-2">
<path id="Vector" d="M15 6.66675C16.3807 6.66675 17.5 5.54746 17.5 4.16675C17.5 2.78604 16.3807 1.66675 15 1.66675C13.6193 1.66675 12.5 2.78604 12.5 4.16675C12.5 5.54746 13.6193 6.66675 15 6.66675Z" fill="white" stroke="white" stroke-width="2" stroke-linecap="round" stroke-linejoin="round"/>
<path id="Vector_2" d="M5 12.5C6.38071 12.5 7.5 11.3807 7.5 10C7.5 8.61929 6.38071 7.5 5 7.5C3.61929 7.5 2.5 8.61929 2.5 10C2.5 11.3807 3.61929 12.5 5 12.5Z" fill="white" stroke="white" stroke-width="2" stroke-linecap="round" stroke-linejoin="round"/>
<path id="Vector_3" d="M15 18.3333C16.3807 18.3333 17.5 17.214 17.5 15.8333C17.5 14.4525 16.3807 13.3333 15 13.3333C13.6193 13.3333 12.5 14.4525 12.5 15.8333C12.5 17.214 13.6193 18.3333 15 18.3333Z" fill="white" stroke="white" stroke-width="2" stroke-linecap="round" stroke-linejoin="round"/>
<path id="Vector_4" d="M7.15833 11.2583L12.85 14.575" stroke="white" stroke-width="2" stroke-linecap="round" stroke-linejoin="round"/>
<path id="Vector_5" d="M12.8417 5.42505L7.15833 8.74172" stroke="white" stroke-width="2" stroke-linecap="round" stroke-linejoin="round"/>
</g>
</svg>
