<svg width="20" height="20" viewBox="0 0 20 20" fill="none" xmlns="http://www.w3.org/2000/svg">
<path d="M14.5834 2.08325C13.2027 2.08325 12.0834 3.20254 12.0834 4.58325C12.0834 4.80364 12.1119 5.01739 12.1655 5.22097C12.1064 5.23317 12.0482 5.25419 11.9925 5.28456L9.69533 6.53753L6.77333 8.20726C6.74346 8.22433 6.71554 8.24348 6.68964 8.26444C6.3168 8.04345 5.88159 7.91658 5.41675 7.91658C4.03604 7.91658 2.91675 9.03584 2.91675 10.4166C2.91675 11.7973 4.03604 12.9166 5.41675 12.9166C6.14514 12.9166 6.80077 12.6051 7.25771 12.108L9.6965 13.4629L12.1586 14.8058C12.1095 15.0013 12.0834 15.2059 12.0834 15.4166C12.0834 16.7973 13.2027 17.9166 14.5834 17.9166C15.9642 17.9166 17.0834 16.7973 17.0834 15.4166C17.0834 14.0358 15.9642 12.9166 14.5834 12.9166C13.8631 12.9166 13.2138 13.2213 12.7577 13.7088L10.3015 12.3691L7.847 11.0054C7.89259 10.8166 7.91675 10.6194 7.91675 10.4166C7.91675 9.96684 7.79799 9.54484 7.59012 9.18025L10.3048 7.62897L12.591 6.38194C12.6469 6.35146 12.6962 6.31369 12.7386 6.27047C13.1957 6.76999 13.853 7.08325 14.5834 7.08325C15.9642 7.08325 17.0834 5.96396 17.0834 4.58325C17.0834 3.20254 15.9642 2.08325 14.5834 2.08325Z" fill="#62C4A4"/>
</svg>
