<svg width="13" height="15" viewBox="0 0 13 15" fill="none" xmlns="http://www.w3.org/2000/svg">
<path d="M4.5 1.80367V0.470337H8.5V1.80367H4.5ZM5.83333 9.137H7.16667V5.137H5.83333V9.137ZM6.5 14.4703C5.67778 14.4703 4.90267 14.3121 4.17467 13.9957C3.44711 13.6788 2.81111 13.2481 2.26667 12.7037C1.72222 12.1592 1.29156 11.5232 0.974667 10.7957C0.658222 10.0677 0.5 9.29256 0.5 8.47034C0.5 7.64811 0.658222 6.873 0.974667 6.145C1.29156 5.41745 1.72222 4.78145 2.26667 4.237C2.81111 3.69256 3.44711 3.26211 4.17467 2.94567C4.90267 2.62878 5.67778 2.47034 6.5 2.47034C7.18889 2.47034 7.85 2.58145 8.48333 2.80367C9.11667 3.02589 9.71111 3.34811 10.2667 3.77034L11.2 2.837L12.1333 3.77034L11.2 4.70367C11.6222 5.25923 11.9444 5.85367 12.1667 6.487C12.3889 7.12034 12.5 7.78145 12.5 8.47034C12.5 9.29256 12.3418 10.0677 12.0253 10.7957C11.7084 11.5232 11.2778 12.1592 10.7333 12.7037C10.1889 13.2481 9.55289 13.6788 8.82533 13.9957C8.09733 14.3121 7.32222 14.4703 6.5 14.4703ZM6.5 13.137C7.78889 13.137 8.88889 12.6814 9.8 11.7703C10.7111 10.8592 11.1667 9.75923 11.1667 8.47034C11.1667 7.18145 10.7111 6.08145 9.8 5.17034C8.88889 4.25923 7.78889 3.80367 6.5 3.80367C5.21111 3.80367 4.11111 4.25923 3.2 5.17034C2.28889 6.08145 1.83333 7.18145 1.83333 8.47034C1.83333 9.75923 2.28889 10.8592 3.2 11.7703C4.11111 12.6814 5.21111 13.137 6.5 13.137Z" fill="white"/>
</svg>
