<svg width="21" height="21" viewBox="0 0 21 21" fill="none" xmlns="http://www.w3.org/2000/svg">
<g id="vuesax/bold/whatsapp">
<g id="whatsapp">
<path id="Vector" d="M18.8166 10.0083C18.5333 5.17496 14.1417 1.44997 9.08332 2.2833C5.59998 2.8583 2.80832 5.68328 2.26666 9.16662C1.94999 11.1833 2.36667 13.0916 3.27501 14.6666L2.53333 17.425C2.36666 18.05 2.94165 18.6166 3.55831 18.4416L6.27499 17.6916C7.50832 18.4166 8.94999 18.8333 10.4917 18.8333C15.1917 18.8333 19.0916 14.6916 18.8166 10.0083ZM14.5667 13.6C14.4917 13.75 14.4 13.8916 14.2833 14.025C14.075 14.25 13.85 14.4166 13.6 14.5166C13.35 14.625 13.075 14.675 12.7833 14.675C12.3583 14.675 11.9 14.575 11.425 14.3666C10.9416 14.1583 10.4667 13.8833 9.99167 13.5416C9.50834 13.1916 9.05833 12.8 8.62499 12.375C8.19166 11.9416 7.80831 11.4833 7.45831 11.0083C7.11664 10.5333 6.84166 10.0583 6.64166 9.58328C6.44166 9.10828 6.34167 8.64996 6.34167 8.21663C6.34167 7.9333 6.39166 7.6583 6.49166 7.4083C6.59166 7.14996 6.75001 6.91663 6.97501 6.7083C7.24168 6.44163 7.53332 6.31663 7.84166 6.31663C7.95832 6.31663 8.07497 6.34163 8.1833 6.39163C8.29164 6.44163 8.39166 6.51663 8.46666 6.62496L9.4333 7.99161C9.5083 8.09995 9.56665 8.19162 9.59998 8.28329C9.64165 8.37495 9.65832 8.45828 9.65832 8.54162C9.65832 8.64162 9.625 8.74163 9.56666 8.84163C9.50833 8.94163 9.43331 9.04162 9.33331 9.14162L9.01664 9.47495C8.96664 9.52495 8.95001 9.57496 8.95001 9.64162C8.95001 9.67496 8.9583 9.70829 8.96664 9.74162C8.9833 9.77495 8.99167 9.79996 9 9.82496C9.075 9.96662 9.20831 10.1416 9.39165 10.3583C9.58331 10.5749 9.78335 10.8 10 11.0166C10.225 11.2416 10.4417 11.4416 10.6667 11.6333C10.8833 11.8166 11.0666 11.9416 11.2083 12.0166C11.2333 12.025 11.2583 12.0416 11.2833 12.0499C11.3167 12.0666 11.35 12.0666 11.3917 12.0666C11.4667 12.0666 11.5167 12.0416 11.5667 11.9916L11.8833 11.675C11.9916 11.5666 12.0917 11.4916 12.1833 11.4416C12.2833 11.3833 12.375 11.3499 12.4833 11.3499C12.5667 11.3499 12.65 11.3666 12.7417 11.4083C12.8333 11.45 12.9333 11.5 13.0333 11.575L14.4167 12.5583C14.525 12.6333 14.6 12.725 14.65 12.825C14.6916 12.9333 14.7167 13.0333 14.7167 13.15C14.6667 13.2916 14.6333 13.45 14.5667 13.6Z" fill="#0B150F"/>
</g>
</g>
</svg>
